<svg xmlns:mydata="http://www.w3.org/2000/svg" mydata:contrastcolor="D3C0CD" mydata:template="Default" mydata:presentation="2.5" mydata:layoutType="undefined" mydata:specialFontId="undefined" mydata:id1="769" mydata:id2="108" mydata:companyName="Tesak inc." mydata:companyTagline="" version="1.1" xmlns="http://www.w3.org/2000/svg" xmlns:xlink="http://www.w3.org/1999/xlink" width="550" height="940"><g fill="#000000" fill-rule="nonzero" stroke="none" stroke-width="1" stroke-linecap="butt" stroke-linejoin="miter" stroke-miterlimit="10" stroke-dasharray="" stroke-dashoffset="0" font-family="none" font-weight="none" font-size="none" text-anchor="none" style="mix-blend-mode: normal"><g data-paper-data="{&quot;isGlobalGroup&quot;:true}"><g data-paper-data="{&quot;isPrimaryText&quot;:true}"><path d="M65.05983,217.85238h18.68248v45.82502c0,0.03303 0.0268,0.05983 0.05983,0.05983h11.47121c0.03303,0 0.05983,-0.0268 0.05983,-0.05983v-45.82502h18.68296c0.03303,0 0.05983,-0.0268 0.05983,-0.05983v-11.47121c0,-0.03303 -0.0268,-0.05983 -0.05983,-0.05983h-48.95632c-0.03303,0 -0.05983,0.0268 -0.05983,0.05983v11.47121c0,0.03303 0.02633,0.05983 0.05983,0.05983z" data-paper-data="{&quot;glyphName&quot;:&quot;T&quot;,&quot;glyphIndex&quot;:0,&quot;firstGlyphOfWord&quot;:true,&quot;word&quot;:1}"></path><path d="M121.40191,263.73723h48.95728c0.03303,0 0.05983,-0.0268 0.05983,-0.05983v-11.47121c0,-0.03303 -0.0268,-0.05983 -0.05983,-0.05983h-37.42575v-11.35155h25.95885c0.03303,0 0.05983,-0.0268 0.05983,-0.05983v-11.47121c0,-0.03303 -0.0268,-0.05983 -0.05983,-0.05983h-25.95885v-11.35155h37.42575c0.03303,0 0.05983,-0.0268 0.05983,-0.05983v-11.47121c0,-0.03303 -0.0268,-0.05983 -0.05983,-0.05983h-48.95728c-0.03303,0 -0.05983,0.0268 -0.05983,0.05983v57.35606c0,0.03303 0.0268,0.05983 0.05983,0.05983z" data-paper-data="{&quot;glyphName&quot;:&quot;E&quot;,&quot;glyphIndex&quot;:1,&quot;word&quot;:1}"></path><path d="M206.64475,252.15114h-14.56565c-3.13178,0 -5.67913,-2.54783 -5.67913,-5.67913c0,-0.03303 -0.0268,-0.05983 -0.05983,-0.05983h-11.4669c-0.03303,0 -0.05983,0.0268 -0.05983,0.05983c0,9.52025 7.74544,17.26569 17.26569,17.26569h14.56565c9.52073,0 17.26569,-7.74544 17.26569,-17.26569c0,-9.52025 -7.74544,-17.26569 -17.26569,-17.26569h-14.56565c-3.13178,0 -5.67913,-2.54783 -5.67913,-5.67913c0,-3.1313 2.54735,-5.67913 5.67913,-5.67913h14.56565c3.13178,0 5.67913,2.54783 5.67913,5.67913c0,0.03303 0.0268,0.05983 0.05983,0.05983h11.4669c0.03303,0 0.05983,-0.0268 0.05983,-0.05983c0,-9.52025 -7.74544,-17.26569 -17.26569,-17.26569h-14.56565c-9.52073,0 -17.26569,7.74544 -17.26569,17.26569c0,9.52025 7.74544,17.26569 17.26569,17.26569h14.56565c3.13178,0 5.67913,2.54783 5.67913,5.67913c0,3.1313 -2.54735,5.67913 -5.67913,5.67913z" data-paper-data="{&quot;glyphName&quot;:&quot;S&quot;,&quot;glyphIndex&quot;:2,&quot;word&quot;:1}"></path><path d="M233.33204,244.41462h12.4352c0.01914,0 0.03686,-0.0091 0.04834,-0.02441c0.01149,-0.01532 0.01436,-0.03542 0.00862,-0.05361l-6.2176,-19.32291c-0.01579,-0.04978 -0.09812,-0.04978 -0.11392,0l-6.2176,19.32291c-0.00574,0.01819 -0.00239,0.03829 0.00862,0.05361c0.01101,0.01532 0.0292,0.02441 0.04834,0.02441zM249.4576,255.76809h-19.81591c-0.02585,0 -0.04882,0.01675 -0.05696,0.04164l-2.52725,7.84978c-0.00622,0.01819 -0.00287,0.03829 0.00861,0.05361c0.01149,0.01532 0.0292,0.02441 0.04834,0.02441h24.87041c0.01914,0 0.03733,-0.0091 0.04834,-0.02441c0.01101,-0.01532 0.01436,-0.03542 0.00862,-0.05361l-2.52725,-7.84978c-0.00814,-0.02489 -0.03111,-0.04164 -0.05696,-0.04164zM295.3166,235.00159l17.71466,-28.64883c0.01101,-0.01867 0.01197,-0.04164 0.00144,-0.06079c-0.01053,-0.01914 -0.03063,-0.03063 -0.05217,-0.03063h-13.47865c-0.02058,0 -0.03973,0.01053 -0.05074,0.02824l-10.99065,17.77497c-0.00096,0.00144 -0.00287,0.00048 -0.00383,0.00191l-6.73933,10.90354l-6.15969,9.95869v-38.60705c0,-0.03303 -0.0268,-0.05983 -0.05983,-0.05983h-29.9249c-0.01914,0 -0.03686,0.0091 -0.04834,0.02441c-0.01101,0.01532 -0.01436,0.03542 -0.00862,0.05361l18.45656,57.35606c0.00096,0.00287 0.00527,0.00239 0.0067,0.00479c0.00957,0.0201 0.02633,0.03686 0.05026,0.03686h13.48344c0.02058,0 0.03973,-0.01053 0.05074,-0.02824l10.94422,-17.69504l10.94279,17.69504c0.01101,0.01771 0.03015,0.02824 0.05074,0.02824h13.47865c0.02154,0 0.04164,-0.01149 0.05217,-0.03063c0.01053,-0.01914 0.01005,-0.04212 -0.00144,-0.06079z" data-paper-data="{&quot;glyphName&quot;:&quot;&quot;,&quot;glyphIndex&quot;:3,&quot;lastGlyphOfWord&quot;:true,&quot;word&quot;:1}"></path><path d="M345.29384,263.73723h11.4669c0.03303,0 0.05983,-0.0268 0.05983,-0.05983v-57.35606c0,-0.03303 -0.0268,-0.05983 -0.05983,-0.05983h-11.4669c-0.03303,0 -0.05983,0.0268 -0.05983,0.05983v57.35606c0,0.03303 0.0268,0.05983 0.05983,0.05983z" data-paper-data="{&quot;glyphName&quot;:&quot;I&quot;,&quot;glyphIndex&quot;:4,&quot;firstGlyphOfWord&quot;:true,&quot;word&quot;:2}"></path><path d="M364.15199,263.73866h11.46355c0.03303,0 0.05983,-0.0268 0.05983,-0.05983v-38.60753l23.89828,38.63912c0.01053,0.01771 0.03015,0.02824 0.05074,0.02824h13.48344c0.03303,0 0.05983,-0.0268 0.05983,-0.05983v-57.35606c0,-0.03303 -0.0268,-0.05983 -0.05983,-0.05983h-11.46834c-0.03303,0 -0.05983,0.0268 -0.05983,0.05983v38.60753l-23.89302,-38.63912c-0.01053,-0.01771 -0.03015,-0.02824 -0.05074,-0.02824h-13.48392c-0.03303,0 -0.05983,0.0268 -0.05983,0.05983v57.35606c0,0.03303 0.0268,0.05983 0.05983,0.05983z" data-paper-data="{&quot;glyphName&quot;:&quot;N&quot;,&quot;glyphIndex&quot;:5,&quot;word&quot;:2}"></path><path d="M449.17211,263.72383c7.35917,0 14.71834,-2.80103 20.32088,-8.40357c0.02297,-0.02345 0.02297,-0.06127 0,-0.08472l-8.11112,-8.1116c-0.0225,-0.0225 -0.06175,-0.0225 -0.0852,0c-6.68524,6.68572 -17.56389,6.68572 -24.24913,0c-3.23899,-3.23851 -5.02243,-7.54441 -5.02243,-12.12456c0,-4.58016 1.78391,-8.88605 5.02243,-12.12504c6.68524,-6.68572 17.56389,-6.68572 24.24913,0c0.02345,0.0225 0.0627,0.0225 0.0852,0l8.11112,-8.1116c0.02297,-0.02345 0.02297,-0.06127 0,-0.08472c-11.20509,-11.20509 -29.43669,-11.20509 -40.64177,0c-5.42784,5.42784 -8.41698,12.64437 -8.41698,20.32088c0,7.67651 2.98914,14.89305 8.41698,20.32088c5.60254,5.60302 12.96171,8.40405 20.32088,8.40405z" data-paper-data="{&quot;glyphName&quot;:&quot;C&quot;,&quot;glyphIndex&quot;:6,&quot;word&quot;:2}"></path><path d="M479.20648,252.14646c-3.194,0 -5.79304,2.59856 -5.79304,5.79304c0,3.19448 2.59904,5.79304 5.79304,5.79304c3.19448,0 5.79352,-2.59856 5.79352,-5.79304c0,-3.19448 -2.59904,-5.79304 -5.79352,-5.79304z" data-paper-data="{&quot;glyphName&quot;:&quot;.&quot;,&quot;glyphIndex&quot;:7,&quot;lastGlyphOfWord&quot;:true,&quot;word&quot;:2}"></path></g></g></g></svg>